<svg xmlns="http://www.w3.org/2000/svg" xmlns:xlink="http://www.w3.org/1999/xlink" viewBox="0 0 48 38.05"><defs><style>.cls-1{fill:url(#linear-gradient);}.cls-2{fill:url(#linear-gradient-2);}.cls-3{fill:url(#linear-gradient-3);}.cls-4{fill:url(#linear-gradient-4);}.cls-5{fill:url(#linear-gradient-5);}.cls-6{fill:url(#linear-gradient-6);}.cls-7{fill:url(#linear-gradient-7);}.cls-8{fill:url(#linear-gradient-8);}.cls-9{fill:url(#linear-gradient-9);}.cls-10{fill:url(#linear-gradient-10);}.cls-11{fill:url(#linear-gradient-11);}</style><linearGradient id="linear-gradient" x1="9.46" y1="23.07" x2="202.21" y2="-0.43" gradientUnits="userSpaceOnUse"><stop offset="0" stop-color="#5caadf"/><stop offset="1" stop-color="#4262aa"/></linearGradient><linearGradient id="linear-gradient-2" x1="9.64" y1="24.51" x2="202.39" y2="1.01" xlink:href="#linear-gradient"/><linearGradient id="linear-gradient-3" x1="9.83" y1="26.04" x2="202.58" y2="2.54" xlink:href="#linear-gradient"/><linearGradient id="linear-gradient-4" x1="7.24" y1="4.85" x2="199.99" y2="-18.65" xlink:href="#linear-gradient"/><linearGradient id="linear-gradient-5" x1="7.85" y1="9.81" x2="200.6" y2="-13.69" xlink:href="#linear-gradient"/><linearGradient id="linear-gradient-6" x1="7.41" y1="6.26" x2="200.16" y2="-17.24" xlink:href="#linear-gradient"/><linearGradient id="linear-gradient-7" x1="8.02" y1="11.21" x2="200.77" y2="-12.29" xlink:href="#linear-gradient"/><linearGradient id="linear-gradient-8" x1="7.59" y1="7.66" x2="200.34" y2="-15.84" xlink:href="#linear-gradient"/><linearGradient id="linear-gradient-9" x1="8.19" y1="12.61" x2="200.94" y2="-10.89" xlink:href="#linear-gradient"/><linearGradient id="linear-gradient-10" x1="7.76" y1="9.06" x2="200.51" y2="-14.44" xlink:href="#linear-gradient"/><linearGradient id="linear-gradient-11" x1="8.36" y1="14.01" x2="201.11" y2="-9.49" xlink:href="#linear-gradient"/></defs><title>calendar-color</title><g id="Layer_2" data-name="Layer 2"><g id="Layer_1-2" data-name="Layer 1"><path class="cls-1" d="M48,38.05H0V4.55H48Zm-46-2H46V6.55H2Z"/><path class="cls-2" d="M12.85,29l5.8-5.64c.36-.35.68-.67,1-1a5.25,5.25,0,0,0,.69-.87,3.32,3.32,0,0,0,.4-.88,3.56,3.56,0,0,0,.13-1,2.51,2.51,0,0,0-.22-1.08,2.29,2.29,0,0,0-.59-.81,2.84,2.84,0,0,0-.89-.53A3.34,3.34,0,0,0,18,17a2.78,2.78,0,0,0-1.93.67,3.05,3.05,0,0,0-1,1.78l-2-.17a5,5,0,0,1,.58-1.66,4,4,0,0,1,1.06-1.21,4.8,4.8,0,0,1,1.45-.72A5.65,5.65,0,0,1,18,15.42a6,6,0,0,1,1.81.27,4.38,4.38,0,0,1,1.48.79,3.74,3.74,0,0,1,1,1.3,4,4,0,0,1,.38,1.8,5,5,0,0,1-.25,1.65,5.22,5.22,0,0,1-.67,1.36,9.53,9.53,0,0,1-.95,1.17c-.36.37-.73.74-1.12,1.1l-4.74,4.45v0h7.84v1.7h-9.9Z"/><path class="cls-3" d="M32.93,25.84h2.22v1.69H32.93v3.52H31.11V27.53H24.6v-2l6.1-9.83h2.23Zm-1.82-8h0l-4.91,8h4.95Z"/><path class="cls-4" d="M6.38,10.05h-1V6.46h-1V2.92A7,7,0,0,1,4.65.63c.22-.62.6-.66.8-.62.81.14.93,2,.93,3.1Z"/><circle class="cls-5" cx="5.88" cy="10.05" r="1"/><path class="cls-6" d="M18.05,10.05h-1V6.46h-1V2.92A7.06,7.06,0,0,1,16.31.63c.23-.63.61-.65.81-.62.81.14.93,2,.93,3.1Z"/><circle class="cls-7" cx="17.55" cy="10.05" r="1"/><path class="cls-8" d="M29.71,10.05h-1V6.46h-1V2.92A7,7,0,0,1,28,.63c.23-.62.6-.66.81-.62.8.14.92,2,.92,3.1Z"/><circle class="cls-9" cx="29.22" cy="10.05" r="1"/><path class="cls-10" d="M41.38,10.05h-1V6.46h-1V2.92A7,7,0,0,1,39.65.63c.22-.62.6-.66.8-.62.81.14.93,2,.93,3.1Z"/><circle class="cls-11" cx="40.88" cy="10.05" r="1"/></g></g></svg>