<svg xmlns="http://www.w3.org/2000/svg" xmlns:xlink="http://www.w3.org/1999/xlink" viewBox="0 0 65.75 37.52" style="stroke: none !important;"><defs><style>.cls-1{fill:url(#linear-gradient);}.cls-2{fill:url(#linear-gradient-2);}.cls-3{fill:url(#linear-gradient-3);}.cls-4{fill:url(#linear-gradient-4);}</style><linearGradient id="linear-gradient" x1="46.25" y1="15.65" x2="251.02" y2="-22.5" gradientUnits="userSpaceOnUse"><stop offset="0" stop-color="#5caadf"/><stop offset="1" stop-color="#4262aa"/></linearGradient><linearGradient id="linear-gradient-2" x1="45.18" y1="9.9" x2="249.95" y2="-28.26" xlink:href="#linear-gradient"/><linearGradient id="linear-gradient-3" x1="46.29" y1="15.87" x2="251.06" y2="-22.29" xlink:href="#linear-gradient"/><linearGradient id="linear-gradient-4" x1="47.56" y1="22.67" x2="252.33" y2="-15.49" xlink:href="#linear-gradient"/></defs><title>chat-icon</title><g id="Capa_2" data-name="Capa 2"><g id="Capa_1-2" data-name="Capa 1"><path class="cls-1" d="M56.92,37.52H2.23A2.32,2.32,0,0,1,0,35.12V2.4A2.32,2.32,0,0,1,2.23,0H56.92a2.32,2.32,0,0,1,2.23,2.4V14.7l6.6,4-6.6,5V35.12A2.32,2.32,0,0,1,56.92,37.52ZM2.23,1.91c-.15,0-.32.21-.32.49V35.12c0,.28.17.49.32.49H56.92c.15,0,.32-.21.32-.49V22.68l5.1-3.83-5.1-3.07V2.4c0-.28-.17-.49-.32-.49Z"/><rect class="cls-2" x="11.51" y="12.09" width="33.55" height="1.91"/><rect class="cls-3" x="11.65" y="18.25" width="33.55" height="1.91"/><rect class="cls-4" x="11.65" y="25.28" width="33.55" height="1.91"/></g></g></svg>