<svg xmlns="http://www.w3.org/2000/svg" viewBox="0 0 33.82 103.89" style="stroke: none !important;"><defs><style>.cls-1{fill:#999;}</style></defs><title>cigarro-gris</title><g id="Layer_2" data-name="Layer 2"><g id="Layer_1-2" data-name="Layer 1"><path class="cls-1" d="M33.82,103.89H0V36.24H33.82Zm-30-3.84H30v-60H3.84Z"/><rect class="cls-1" x="2.69" y="51.23" width="28.44" height="3.84"/><path class="cls-1" d="M15.61,0a18.62,18.62,0,0,0-4.82,4.34,9.31,9.31,0,0,0-2,5.68,7.2,7.2,0,0,0,.61,2.82A4.42,4.42,0,0,0,10.17,14a7.48,7.48,0,0,0,1,1,15.61,15.61,0,0,0,2.57,1.62c.95.46,1.94.9,3,1.35a28.52,28.52,0,0,1,3.07,1.63,9.18,9.18,0,0,1,2.7,2.58,6.62,6.62,0,0,1,1.09,3.71,7.86,7.86,0,0,1-1,3.59,11.36,11.36,0,0,1-2.16,2.82,19,19,0,0,1-2.73,2.09c-1.9,1.2-3.84,2.2-5.62,3.53A40.61,40.61,0,0,1,17,33.52,13.39,13.39,0,0,0,21,28.73,6.61,6.61,0,0,0,21.54,26a4.43,4.43,0,0,0-.87-2.51,7.58,7.58,0,0,0-2.1-1.9,26.54,26.54,0,0,0-2.82-1.43,24.69,24.69,0,0,1-6-3.43,9.32,9.32,0,0,1-1.25-1.4,6.44,6.44,0,0,1-.93-1.66A8.09,8.09,0,0,1,7,10a9.83,9.83,0,0,1,.9-3.48,11.27,11.27,0,0,1,2-2.88A15.41,15.41,0,0,1,15.61,0Z"/><path class="cls-1" d="M4.92,17a2.5,2.5,0,0,0-1,2.33,3.21,3.21,0,0,0,.3,1.16,2.93,2.93,0,0,0,.68.89A6,6,0,0,0,7,22.61a26.15,26.15,0,0,0,2.67.71,8.58,8.58,0,0,1,1.57.57,4.17,4.17,0,0,1,1.5,1.27,3.33,3.33,0,0,1,.59,2,4.08,4.08,0,0,1-.48,1.8,4.8,4.8,0,0,1-1.09,1.35,7.18,7.18,0,0,1-1.36.86,17.93,17.93,0,0,1-2.85.94c.72-.7,1.55-1.25,2.23-1.88a4.48,4.48,0,0,0,1.41-2c.44-1.57-.29-2.19-2.12-2.65S5,24.5,3.53,22.59A4.21,4.21,0,0,1,2.79,21a4.27,4.27,0,0,1,0-1.71,3.4,3.4,0,0,1,.74-1.48A2.2,2.2,0,0,1,4.92,17Z"/><path class="cls-1" d="M19.47,5.39a2.12,2.12,0,0,0-1.55,2.32,2,2,0,0,0,.14.65,1.79,1.79,0,0,0,.32.54,3.48,3.48,0,0,0,1,.87,8.25,8.25,0,0,0,2.85.85,22.35,22.35,0,0,1,3.48.65,7.37,7.37,0,0,1,5.05,5.57,6.46,6.46,0,0,1-2.53,6.53,7.2,7.2,0,0,0,.79-6.07,6.33,6.33,0,0,0-4-3.84c-.94-.3-2-.44-3.19-.7a8.11,8.11,0,0,1-3.47-1.52,4.51,4.51,0,0,1-1.3-1.57,3.12,3.12,0,0,1-.32-1,3,3,0,0,1,0-1,3.18,3.18,0,0,1,.94-1.71,2.57,2.57,0,0,1,.83-.48A1.84,1.84,0,0,1,19.47,5.39Z"/></g></g></svg>