<svg xmlns="http://www.w3.org/2000/svg" xmlns:xlink="http://www.w3.org/1999/xlink" viewBox="0 0 78.76 43.97" style="stroke: none !important;"><defs><style>.cls-1{fill:url(#linear-gradient);}.cls-2{fill:url(#linear-gradient-2);}</style><linearGradient id="linear-gradient" x1="-1.79" y1="23.91" x2="373.07" y2="0.34" gradientUnits="userSpaceOnUse"><stop offset="0" stop-color="#5caadf"/><stop offset="1" stop-color="#4262aa"/></linearGradient><linearGradient id="linear-gradient-2" x1="-1.59" y1="27.04" x2="373.27" y2="3.47" xlink:href="#linear-gradient"/></defs><title>coach-icon</title><g id="Capa_2" data-name="Capa 2"><g id="Capa_1-2" data-name="Capa 1"><path class="cls-1" d="M52.26,44H5.31A5.31,5.31,0,0,1,0,38.66V5.31A5.31,5.31,0,0,1,5.31,0H52.26a5.31,5.31,0,0,1,5.31,5.31V38.66A5.31,5.31,0,0,1,52.26,44ZM5.31,2.27a3,3,0,0,0-3,3V38.66a3,3,0,0,0,3,3H52.26a3,3,0,0,0,3-3V5.31a3,3,0,0,0-3-3Z"/><path class="cls-2" d="M78.76,37.65,62.33,33V11L78.76,6.32Zm-14.17-6.4,11.9,3.4V9.32l-11.9,3.4Z"/></g></g></svg>