<svg xmlns="http://www.w3.org/2000/svg" viewBox="0 0 86.88 48.5"><defs><style>.cls-1{fill:#fff;}</style></defs><title>coach-ses</title><g id="Layer_2" data-name="Layer 2"><g id="Layer_1-2" data-name="Layer 1"><path class="cls-1" d="M57.65,48.5H5.85A5.85,5.85,0,0,1,0,42.65V5.85A5.85,5.85,0,0,1,5.85,0h51.8A5.85,5.85,0,0,1,63.5,5.85v36.8A5.85,5.85,0,0,1,57.65,48.5ZM5.85,2.5A3.35,3.35,0,0,0,2.5,5.85v36.8A3.35,3.35,0,0,0,5.85,46h51.8A3.35,3.35,0,0,0,61,42.65V5.85A3.35,3.35,0,0,0,57.65,2.5Z"/><path class="cls-1" d="M86.88,41.53,68.75,36.35V12.15L86.88,7ZM71.25,34.47l13.13,3.75V10.28L71.25,14Z"/></g></g></svg>