<svg xmlns="http://www.w3.org/2000/svg" xmlns:xlink="http://www.w3.org/1999/xlink" viewBox="0 0 84.21 54.63" style="stroke: none !important;"><defs><style>.cls-1{fill:url(#linear-gradient);}.cls-2{fill:url(#linear-gradient-2);}.cls-3{fill:url(#linear-gradient-3);}</style><linearGradient id="linear-gradient" x1="22.83" y1="63.9" x2="69.33" y2="12.9" gradientUnits="userSpaceOnUse"><stop offset="0" stop-color="#5caadf"/><stop offset="1" stop-color="#4262aa"/></linearGradient><linearGradient id="linear-gradient-2" x1="14.76" y1="56.54" x2="61.25" y2="5.54" xlink:href="#linear-gradient"/><linearGradient id="linear-gradient-3" x1="7" y1="49.47" x2="53.5" y2="-1.53" xlink:href="#linear-gradient"/></defs><title>estres-color</title><g id="Layer_2" data-name="Layer 2"><g id="Layer_1-2" data-name="Layer 1"><path class="cls-1" d="M65.76,35.26a50.49,50.49,0,0,1,7.84.4,28.44,28.44,0,0,1,4,.79,14.9,14.9,0,0,1,4.13,1.72,4.61,4.61,0,0,1,1,.89,5.59,5.59,0,0,1,.46.58c.15.23.28.46.42.7A5.15,5.15,0,0,1,84,44.05a6,6,0,0,1-1.68,2.71,11.13,11.13,0,0,1-2,1.5,30.38,30.38,0,0,1-7.75,3.06,95.45,95.45,0,0,1-15.47,2.62c-5.17.49-10.34.7-15.51.69a154.74,154.74,0,0,1-15.51-.78,90.55,90.55,0,0,1-15.47-2.77,36.91,36.91,0,0,1-3.87-1.33,18.28,18.28,0,0,1-3.89-2.09A8.23,8.23,0,0,1,1,45.76a5.12,5.12,0,0,1-1-3.48,5.17,5.17,0,0,1,.53-1.8A7.82,7.82,0,0,1,1,39.8a3.37,3.37,0,0,1,.46-.6l.46-.54c.16-.16.32-.29.48-.43a4.53,4.53,0,0,1,1-.68,25.23,25.23,0,0,1,8.07-2.11,54.16,54.16,0,0,1,7.83-.32C16.88,36,14.48,37,12.2,38c-1.14.53-2.24,1.09-3.29,1.69a14.92,14.92,0,0,0-2.73,2c-.18.17-.37.32-.52.45l-.25.18-.18.17c-.16.12-.14.19-.22.26s0,.06,0,0,0-.11.08.1a3.4,3.4,0,0,0,.79.74,14.49,14.49,0,0,0,2.84,1.5c1.07.43,2.2.81,3.36,1.15a86.28,86.28,0,0,0,14.59,2.6,150.11,150.11,0,0,0,15,.75c5,0,10-.2,15-.67A90.4,90.4,0,0,0,71.34,46.5,26.19,26.19,0,0,0,77.78,44a5.94,5.94,0,0,0,1.08-.81,1.39,1.39,0,0,0,.36-.46s0,.15,0,0a.47.47,0,0,1-.1-.1s-.11-.1-.16-.15-.26-.25-.38-.41a10.87,10.87,0,0,0-2.5-2,35.2,35.2,0,0,0-3.22-1.77C70.56,37.18,68.17,36.22,65.76,35.26Z"/><path class="cls-2" d="M55,17a42.14,42.14,0,0,1,8,.39,34,34,0,0,1,7.95,2,18.1,18.1,0,0,1,3.86,2.07,8.4,8.4,0,0,1,3.22,4,5.64,5.64,0,0,1,.15,3.13,6.54,6.54,0,0,1-1.3,2.58,11.61,11.61,0,0,1-3.71,2.92,29.15,29.15,0,0,1-7.95,2.49c-2.66.48-5.31.8-7.93,1.14-5.25.66-10.49,1.27-15.79,1.75-2.66.21-5.33.39-8,.35a70.08,70.08,0,0,1-8-.57,60.88,60.88,0,0,1-8-1.49,29.57,29.57,0,0,1-7.91-3.17A12.82,12.82,0,0,1,5.8,31.48a6.87,6.87,0,0,1-1.28-2.72,5.79,5.79,0,0,1,.2-3.25,8.71,8.71,0,0,1,3.34-4.08,20,20,0,0,1,3.92-2,36.33,36.33,0,0,1,8-1.94A47.71,47.71,0,0,1,28,17l.06.49C23,19.09,18,20.63,13.63,23a17.66,17.66,0,0,0-2.85,2,4.12,4.12,0,0,0-1.43,2,1,1,0,0,0,.05.62,2.4,2.4,0,0,0,.47.76,9.39,9.39,0,0,0,2.34,1.77,36.28,36.28,0,0,0,6.62,2.74,70.79,70.79,0,0,0,7.33,1.85c2.5.5,5,.86,7.59,1.22s5.12.71,7.71.92A55.74,55.74,0,0,0,57,36.22,40.21,40.21,0,0,0,64.42,34,35.17,35.17,0,0,0,71,30.6a10.08,10.08,0,0,0,2.3-2.07,2.39,2.39,0,0,0,.46-.9,1.25,1.25,0,0,0,0-.74,4.73,4.73,0,0,0-1.57-2A18.2,18.2,0,0,0,69.28,23a57.36,57.36,0,0,0-7-3c-2.43-.86-4.92-1.64-7.44-2.48Z"/><path class="cls-3" d="M41.89,22.41c-11.48,0-20.13-4.81-20.13-11.2S30.41,0,41.89,0,62,4.82,62,11.21,53.37,22.41,41.89,22.41ZM41.89,5c-9.24,0-15.13,3.68-15.13,6.21s5.89,6.2,15.13,6.2S57,13.74,57,11.21,51.13,5,41.89,5Z"/></g></g></svg>