<svg xmlns="http://www.w3.org/2000/svg" xmlns:xlink="http://www.w3.org/1999/xlink" viewBox="0 0 110.88 70.75" style="stroke: none !important;"><defs><style>.cls-1{fill:url(#linear-gradient);}.cls-2{fill:url(#linear-gradient-2);}.cls-3{fill:url(#linear-gradient-3);}</style><linearGradient id="linear-gradient" x1="27.11" y1="67.85" x2="210.23" y2="-5.68" gradientUnits="userSpaceOnUse"><stop offset="0" stop-color="#fff"/><stop offset="1" stop-color="#fff"/></linearGradient><linearGradient id="linear-gradient-2" x1="19.68" y1="49.36" x2="202.81" y2="-24.17" xlink:href="#linear-gradient"/><linearGradient id="linear-gradient-3" x1="12.22" y1="30.77" x2="195.35" y2="-42.75" xlink:href="#linear-gradient"/></defs><title>estres</title><g id="Layer_2" data-name="Layer 2"><g id="Layer_1-2" data-name="Layer 1"><path class="cls-1" d="M87.51,46.15a76.25,76.25,0,0,1,10.36,1.4A43.68,43.68,0,0,1,103,49a20.38,20.38,0,0,1,5.06,2.43,7.14,7.14,0,0,1,2.14,2.44,5.45,5.45,0,0,1,.61,1.81,4.92,4.92,0,0,1-.13,2,6.53,6.53,0,0,1-1.84,2.93,12.68,12.68,0,0,1-2.37,1.8,29.3,29.3,0,0,1-5,2.36c-1.68.63-3.38,1.15-5.09,1.61a126.64,126.64,0,0,1-20.7,3.5c-6.94.66-13.91.94-20.87.93s-13.92-.34-20.86-1A121.44,121.44,0,0,1,13.31,66a50.76,50.76,0,0,1-5.08-1.74A24.27,24.27,0,0,1,3.3,61.63a9.89,9.89,0,0,1-2.24-2.2,7,7,0,0,1-.46-.76c-.07-.14-.14-.27-.2-.41L.24,57.8c0-.16-.09-.31-.13-.47L0,56.83l0-.5,0-.51A5.42,5.42,0,0,1,.59,54a7.91,7.91,0,0,1,1-1.42,8.8,8.8,0,0,1,2.33-2A26,26,0,0,1,9,48.51a50.34,50.34,0,0,1,5.16-1.26q2.58-.49,5.18-.82T24.53,46c-1.67.44-3.34.92-5,1.44s-3.28,1-4.88,1.65S11.48,50.28,10,51a24.27,24.27,0,0,0-4.16,2.5,17,17,0,0,0-1.63,1.37,2.44,2.44,0,0,0-.7,1.32,2,2,0,0,0,.42,1.24,6.14,6.14,0,0,0,1.46,1.4,20.3,20.3,0,0,0,4.19,2.22,46,46,0,0,0,4.72,1.62,119,119,0,0,0,20.07,3.59c6.81.69,13.67,1,20.52,1s13.72-.26,20.53-.91A125.05,125.05,0,0,0,95.51,63c1.63-.44,3.24-.94,4.79-1.52a25.83,25.83,0,0,0,4.37-2.06,9.86,9.86,0,0,0,1.76-1.32,3.25,3.25,0,0,0,.92-1.37,1.41,1.41,0,0,0-.19-1.2,7.26,7.26,0,0,0-1.28-1.4A18.16,18.16,0,0,0,102,51.45c-1.48-.77-3-1.43-4.62-2.07C94.15,48.13,90.84,47.11,87.51,46.15Z"/><path class="cls-2" d="M72.84,21.61a69.86,69.86,0,0,1,10.67,1.21,53.69,53.69,0,0,1,5.27,1.24A41.2,41.2,0,0,1,94,25.87a25.69,25.69,0,0,1,4.92,2.74,13,13,0,0,1,2.2,2,8.23,8.23,0,0,1,1.63,2.8,6.14,6.14,0,0,1,.14,3.45,7.52,7.52,0,0,1-1.47,2.95,12.26,12.26,0,0,1-2.17,2.1,20.16,20.16,0,0,1-2.4,1.57,41.54,41.54,0,0,1-10.32,3.69c-3.52.8-7,1.41-10.59,1.89-7.07,1-14.18,1.66-21.33,2a112.19,112.19,0,0,1-21.5-.93A85.44,85.44,0,0,1,22.41,48a41.81,41.81,0,0,1-10.3-4.15A16.36,16.36,0,0,1,7.57,40a7.84,7.84,0,0,1-1.47-3,6.49,6.49,0,0,1,.17-3.55A8.64,8.64,0,0,1,8,30.56a13.91,13.91,0,0,1,2.24-2,25.59,25.59,0,0,1,5-2.71,42.76,42.76,0,0,1,5.18-1.77c1.74-.5,3.51-.9,5.27-1.23a78.56,78.56,0,0,1,10.67-1.24l0,.34c-3.48.78-6.92,1.61-10.29,2.63a61,61,0,0,0-9.74,3.75A23.48,23.48,0,0,0,12.07,31,7.27,7.27,0,0,0,9.48,34.4a3.11,3.11,0,0,0,0,1.71,4.52,4.52,0,0,0,.92,1.68A13.36,13.36,0,0,0,14,40.67a46,46,0,0,0,9.4,3.86,91.59,91.59,0,0,0,10.17,2.38C37,47.54,40.51,48,44,48.36s7,.67,10.55.82A97.26,97.26,0,0,0,75.71,48c1.74-.31,3.47-.7,5.18-1.12s3.4-.94,5.06-1.51A45.78,45.78,0,0,0,95.32,41a14,14,0,0,0,3.59-3.09,3.88,3.88,0,0,0,.86-3.57A7.37,7.37,0,0,0,97.08,31a23.11,23.11,0,0,0-4.26-2.64c-1.54-.74-3.13-1.43-4.76-2s-3.3-1.15-5-1.66c-3.37-1-6.81-1.85-10.28-2.66Z"/><path class="cls-3" d="M55.15,27.08c-14.38,0-25.64-5.95-25.64-13.54S40.77,0,55.15,0,80.79,6,80.79,13.54,69.52,27.08,55.15,27.08Zm0-23.61C41.89,3.47,33,8.68,33,13.54s8.91,10.07,22.17,10.07S77.32,18.4,77.32,13.54,68.41,3.47,55.15,3.47Z"/></g></g></svg>