<svg xmlns="http://www.w3.org/2000/svg" viewBox="0 0 74.31 79.3"><defs><style>.cls-1{fill:#fff;}</style></defs><title>goals</title><g id="Capa_2" data-name="Capa 2"><g id="Capa_1-2" data-name="Capa 1"><path class="cls-1" d="M41.49,13.66A32.65,32.65,0,0,0,20.81,21L16.59,16l2.2-10.69-2-.41L14.9,13.93,12.54,11.1,14.75.42l-2-.42L10.85,9.07,7.67,5.26,6.08,6.58,9.26,10.4,0,10.6l.05,2.07L11,12.43l2.36,2.82-9.26.2,0,2.07L15,17.29l4.24,5.09a32.8,32.8,0,1,0,22.25-8.72Zm0,63.57A30.73,30.73,0,0,1,20.57,24l6.77,8.12a20.15,20.15,0,1,0,1.55-1.38l-6.76-8.1A30.74,30.74,0,1,1,41.49,77.23ZM41,48.47l1.59-1.33L36.8,40.21a7.75,7.75,0,0,1,4.69-1.58,7.88,7.88,0,1,1-6.18,3Zm-9.41-2a10,10,0,1,0,3.89-7.86L30.21,32.3a18.07,18.07,0,1,1-1.55,1.38L34,40A9.9,9.9,0,0,0,31.58,46.48Z"/></g></g></svg>