<svg xmlns="http://www.w3.org/2000/svg" viewBox="0 0 51 51"><defs><style>.cls-1{fill:none;}.cls-2{fill:#fff;}</style></defs><title>happy</title><g id="Layer_2" data-name="Layer 2"><g id="Layer_1-2" data-name="Layer 1"><path class="cls-1" d="M0,0H51V51H0Z"/><path class="cls-2" d="M25.48,4.25A21.25,21.25,0,1,0,46.75,25.5,21.24,21.24,0,0,0,25.48,4.25Zm0,38.25a17,17,0,1,1,17-17A17,17,0,0,1,25.5,42.5Zm7.44-19.12a3.19,3.19,0,1,0-3.19-3.19A3.18,3.18,0,0,0,32.94,23.38Zm-14.88,0a3.19,3.19,0,1,0-3.18-3.19A3.19,3.19,0,0,0,18.06,23.38ZM25.5,37.19a11.68,11.68,0,0,0,10.86-7.44H14.64A11.68,11.68,0,0,0,25.5,37.19Z"/></g></g></svg>