<svg xmlns="http://www.w3.org/2000/svg" viewBox="0 0 42.5 42.5"><defs><style>.cls-1{fill:#5dabe0;}</style></defs><title>happy-blue</title><g id="Layer_2" data-name="Layer 2"><g id="Layer_1-2" data-name="Layer 1"><path class="cls-1" d="M21.23,0A21.25,21.25,0,1,0,42.5,21.25,21.24,21.24,0,0,0,21.23,0Zm0,38.25a17,17,0,1,1,17-17A17,17,0,0,1,21.25,38.25Zm7.44-19.13a3.19,3.19,0,1,0-3.19-3.18A3.18,3.18,0,0,0,28.69,19.12Zm-14.88,0a3.19,3.19,0,1,0-3.19-3.18A3.18,3.18,0,0,0,13.81,19.12Zm7.44,13.82A11.68,11.68,0,0,0,32.11,25.5H10.39A11.68,11.68,0,0,0,21.25,32.94Z"/></g></g></svg>