<svg xmlns="http://www.w3.org/2000/svg" viewBox="0 0 34.75 34.75" style="stroke: none !important;" ><defs><style>.cls-1,.cls-2{fill:#fff;}.cls-1{opacity:0.8;}</style></defs><title>history-w</title><g id="Layer_2" data-name="Layer 2"><g id="Layer_1-2" data-name="Layer 1"><path class="cls-1" d="M17.38,34.75A17.38,17.38,0,1,1,34.75,17.38,17.39,17.39,0,0,1,17.38,34.75Zm0-33.1A15.73,15.73,0,1,0,33.1,17.38,15.75,15.75,0,0,0,17.38,1.65Z"/><path class="cls-2" d="M16.34,6.21c.19.58.36,1.17.52,1.75l.22.88c0,.15.07.3.1.44a2.14,2.14,0,0,1,0,.44V20.27l-.83-.83H22.8a4.68,4.68,0,0,0,.65,0,3.74,3.74,0,0,1,.65.13c.86.21,1.72.44,2.58.71-.86.27-1.72.51-2.58.71a3.78,3.78,0,0,1-.65.14c-.21,0-.43,0-.65,0H15.51V9.72a3.2,3.2,0,0,1,0-.44c0-.14.07-.29.1-.44L15.82,8C16,7.38,16.15,6.79,16.34,6.21Z"/></g></g></svg>