<svg xmlns="http://www.w3.org/2000/svg" viewBox="0 0 67.94 69.3"><defs><style>.cls-1{fill:none;stroke:#fff;stroke-miterlimit:10;stroke-width:3px;}</style></defs><title>inicio</title><g id="Capa_2" data-name="Capa 2"><g id="Capa_1-2" data-name="Capa 1"><circle class="cls-1" cx="34.16" cy="10.96" r="9.46"/><path class="cls-1" d="M66.12,32.24c-1.79-5.94-7.85-6.19-7.85-6.19l-9,.19c-10.74.79-15.17,4.94-15.17,4.94a14.56,14.56,0,0,1,2.78,2.59c-.1-.1-.19-.21-.3-.31s-2.82-3.61-9.13-5.71c0,0-3.79-1.47-11.56-1.7H9.35A9,9,0,0,0,1.5,34.84s.42,7.52,7.85,8.48H20.17a6,6,0,0,1,5.24,5.4V59.23a8.76,8.76,0,0,0,4,7.29s4.86,3,9.51-.22a8.7,8.7,0,0,0,3.7-7.06s0-3.36-.08-6.92h0s0-.64-.06-1.69v-.18c.15-7.12,5.77-7.1,5.77-7.1h9.93a8.93,8.93,0,0,0,6.4-3.26A9.07,9.07,0,0,0,66.12,32.24Z"/></g></g></svg>