<svg xmlns="http://www.w3.org/2000/svg" xmlns:xlink="http://www.w3.org/1999/xlink" viewBox="0 0 465.4 175.25"><defs><style>.cls-1{fill:#fff;}.cls-2{clip-path:url(#clip-path);}.cls-3{clip-path:url(#clip-path-2);}.cls-4{clip-path:url(#clip-path-3);}</style><clipPath id="clip-path"><path class="cls-1" d="M271,155.34v4a2,2,0,0,1,.8.76,2.26,2.26,0,0,1,.24,1.13v7.85a3.1,3.1,0,0,1-1.24.35,1.16,1.16,0,0,1-1.14-1,10.49,10.49,0,0,1-.27-2.72v-8.07a4.76,4.76,0,0,0-.2-1.39,2.07,2.07,0,0,0-.59-1h-8.47v4a2,2,0,0,1,.83.81,3.12,3.12,0,0,1,.22,1.34v7.1a8.8,8.8,0,0,0,.55,3.38,3.56,3.56,0,0,0,1.87,1.91,8.65,8.65,0,0,0,3.68.64,10.44,10.44,0,0,0,2.95-.38,5.24,5.24,0,0,0,1.81-.78v.92h9.31V170a1.88,1.88,0,0,1-.62-.54,2,2,0,0,1-.37-.79,5.19,5.19,0,0,1-.09-1V155.34Zm-6.22-5a2,2,0,0,0-.64,1.52,2.05,2.05,0,0,0,.67,1.51,2.39,2.39,0,0,0,1.73.64,2.51,2.51,0,0,0,1.28-.32,2.14,2.14,0,0,0,1.1-1.83,2.09,2.09,0,0,0-.63-1.49,2.78,2.78,0,0,0-3.51,0m7.33,0a2.06,2.06,0,0,0-.62,1.52,2,2,0,0,0,.66,1.52,2.4,2.4,0,0,0,1.72.63,2.48,2.48,0,0,0,1.28-.32,2.13,2.13,0,0,0,.82-.81,2,2,0,0,0,.28-1,2.09,2.09,0,0,0-.63-1.49,2.38,2.38,0,0,0-1.75-.64,2.42,2.42,0,0,0-1.76.61"/></clipPath><clipPath id="clip-path-2"><path class="cls-1" d="M294.63,155.05a6.65,6.65,0,0,0-2.45,1v-.73h-9.27v4.51c.7.22,1,.86,1,1.9v5.7a5.45,5.45,0,0,1-.16,1.49,1.44,1.44,0,0,1-.89.85v4.52h10.35v-4.52a2.22,2.22,0,0,1-1.08-2.11v-7.13a2.44,2.44,0,0,1,1.11-.3,1.58,1.58,0,0,1,1,.31,2,2,0,0,1,.63.81,2.61,2.61,0,0,1,.22,1.08v5.94c0,2.05.08,4,.26,5.92h9V170a2.12,2.12,0,0,1-.8-.94,4.47,4.47,0,0,1-.25-1.65v-7.6a6.8,6.8,0,0,0-.36-2.09,4,4,0,0,0-1.64-2,6.66,6.66,0,0,0-3.81-.9,18.19,18.19,0,0,0-2.87.19"/></clipPath><clipPath id="clip-path-3"><path class="cls-1" d="M305.71,148.48V153a1.09,1.09,0,0,1,.88.7,5.83,5.83,0,0,1,.18,1.68v12.34a4.65,4.65,0,0,1-.2,1.43,1.46,1.46,0,0,1-.86.93v4.27h10.05V170a1.72,1.72,0,0,1-.61-.44,1.58,1.58,0,0,1-.31-.59,3.37,3.37,0,0,1-.13-.73c0-.26,0-.62,0-1.07V148.48Z"/></clipPath></defs><title>logo-completo</title><g id="Layer_2" data-name="Layer 2"><g id="Layer_1-2" data-name="Layer 1"><circle class="cls-1" cx="82.28" cy="31.51" r="23.84"/><path class="cls-1" d="M19.78,69.54S1.42,71.25,0,91.68c0,0,1.05,18.95,19.78,21.38H47.05s11.39.84,13.19,13.61v26.47a22.13,22.13,0,0,0,10.18,18.39s12.26,7.59,24-.56a21.93,21.93,0,0,0,9.34-17.8s.23-30.94-2.14-37.19c0,0-2.53-17.17-13.21-27.77,0,0-7.12-9.1-23-14.4,0,0-9.54-3.69-29.11-4.27Z"/><path class="cls-1" d="M82.11,82.45S93.28,72,120.34,70l22.71-.48s15.27.63,19.78,15.59c0,0,3.4,10.68-3.8,19.78a22.51,22.51,0,0,1-16.14,8.23h-25s-16.57-.08-14.38,22.6C103.51,135.74,103.77,97.74,82.11,82.45Z"/><path class="cls-1" d="M217.58,128.65a23.07,23.07,0,0,1-10.72-3.06,16.32,16.32,0,0,1-7.52-8.53l5.21-1.89A11.11,11.11,0,0,0,210,121a18.3,18.3,0,0,0,7.82,2.14,15.58,15.58,0,0,0,10.75-3.23,9.83,9.83,0,0,0,4.07-7.31q.34-7.9-14.45-12.06-10.66-3-15.24-8.31a12.84,12.84,0,0,1-3.28-9.16q.38-8.61,7.31-12.85a22.9,22.9,0,0,1,13.31-3q9.42.42,15,6.47l-4.07,3.78q-4.08-4.41-11.22-4.74a17.91,17.91,0,0,0-10.16,2.18,9.75,9.75,0,0,0-4.67,8.4q-.33,7.73,14.45,11.89,10.68,3,15.25,8.36a13,13,0,0,1,3.28,9.24,15.22,15.22,0,0,1-6.13,11.42,20.74,20.74,0,0,1-13.4,4.46C218.3,128.7,217.94,128.68,217.58,128.65Z"/><path class="cls-1" d="M285,67.79v60.32h-5.5V113H255.55L246,128.11h-6.55L277.6,67.79Zm-26,39.69h20.46V75.18Z"/><path class="cls-1" d="M298,67.79v54.77h28v5.55H292.43V67.79Z"/><path class="cls-1" d="M354.68,67.79v5.54h-15.8v54.78h-5.54V73.33H317.5V67.79Z"/><path class="cls-1" d="M365.64,122.69a20,20,0,0,1-6.09-14.7V67.92h5.54V108a15.25,15.25,0,1,0,30.5,0V67.92h5.54V108a20.79,20.79,0,0,1-35.49,14.7Z"/><path class="cls-1" d="M465.4,67.79v60.28h-5.5V81.19l-20.29,46.92h-6.05L413.31,81.19v46.88h-5.54V67.79h5.8l23,53.34,23.06-53.34Z"/><path class="cls-1" d="M236.38,7.8V47.07H232.8V16.53L219.58,47.1h-3.94L202.45,16.53V47.07h-3.61V7.8h3.77l15,34.75,15-34.75Z"/><path class="cls-1" d="M273.68,7.8v3.61H257.24V25.59h13V29.2h-13V43.48h16.44V47.1H253.62V7.8ZM265.89,0,263,6.18h-1.54V0Z"/><path class="cls-1" d="M311.75,7.8v3.61H301.46V47.1h-3.61V11.41H287.53V7.8Z"/><path class="cls-1" d="M331.62,41.62a19.23,19.23,0,0,1-5.88-14.14,19.33,19.33,0,0,1,5.88-14.18,20,20,0,0,1,28.32,0,19.35,19.35,0,0,1,5.86,14.18,19.25,19.25,0,0,1-5.86,14.14,20,20,0,0,1-28.32,0Zm2.54-25.75a15.82,15.82,0,0,0-4.81,11.61,15.81,15.81,0,0,0,4.81,11.6,16.38,16.38,0,0,0,23.21,0,15.82,15.82,0,0,0,4.82-11.6,15.83,15.83,0,0,0-4.82-11.61,16.4,16.4,0,0,0-23.21,0Z"/><path class="cls-1" d="M381.48,47.1V7.8h9.66A18.94,18.94,0,0,1,405,13.57a18.92,18.92,0,0,1,5.75,13.88A18.9,18.9,0,0,1,405,41.32a19,19,0,0,1-13.9,5.78Zm3.58-3.59h6.08A15.49,15.49,0,0,0,402.5,38.8a15.48,15.48,0,0,0,4.7-11.35,15.5,15.5,0,0,0-4.7-11.36,15.49,15.49,0,0,0-11.36-4.71h-6.08Z"/><path class="cls-1" d="M430.71,41.62a19.23,19.23,0,0,1-5.88-14.14,19.33,19.33,0,0,1,5.88-14.18,20.05,20.05,0,0,1,28.33,0,19.38,19.38,0,0,1,5.85,14.18A19.27,19.27,0,0,1,459,41.62a20,20,0,0,1-28.33,0Zm2.55-25.75a15.83,15.83,0,0,0-4.82,11.61,15.82,15.82,0,0,0,4.82,11.6,16.37,16.37,0,0,0,23.2,0,15.82,15.82,0,0,0,4.82-11.6,15.83,15.83,0,0,0-4.82-11.61,16.39,16.39,0,0,0-23.2,0Z"/><path class="cls-1" d="M198.84,155.35h5.51a7.31,7.31,0,0,1,1.92.25,4.57,4.57,0,0,1,1.52.73,3.38,3.38,0,0,1,1,1.23,3.9,3.9,0,0,1,.37,1.76,3.23,3.23,0,0,1-.76,2.23,4.46,4.46,0,0,1-2,1.27v0a3.48,3.48,0,0,1,1.34.37,3.77,3.77,0,0,1,1.09.85,4.18,4.18,0,0,1,.73,1.23,4.3,4.3,0,0,1,.26,1.5,3.87,3.87,0,0,1-1.63,3.27,5.59,5.59,0,0,1-1.77.85,8,8,0,0,1-2.18.29h-5.44Zm2.15,6.59h2.94a5.24,5.24,0,0,0,1.14-.12,2.59,2.59,0,0,0,.94-.41,2.27,2.27,0,0,0,.64-.74,2.62,2.62,0,0,0-.37-2.74,2.41,2.41,0,0,0-1.91-.69H201Zm0,7.4h3.16a6.3,6.3,0,0,0,1.09-.1,3.44,3.44,0,0,0,1.11-.4,3,3,0,0,0,.87-.82,2.36,2.36,0,0,0,.36-1.37,2.52,2.52,0,0,0-.92-2.12,4,4,0,0,0-2.49-.7H201Z"/><path class="cls-1" d="M216.7,164.45l-6-9.1h2.76l4.33,7,4.46-7h2.62l-6,9.1v6.77H216.7Z"/><path class="cls-1" d="M271,155.34v4a2,2,0,0,1,.8.76,2.26,2.26,0,0,1,.24,1.13v7.85a3.1,3.1,0,0,1-1.24.35,1.16,1.16,0,0,1-1.14-1,10.49,10.49,0,0,1-.27-2.72v-8.07a4.76,4.76,0,0,0-.2-1.39,2.07,2.07,0,0,0-.59-1h-8.47v4a2,2,0,0,1,.83.81,3.12,3.12,0,0,1,.22,1.34v7.1a8.8,8.8,0,0,0,.55,3.38,3.56,3.56,0,0,0,1.87,1.91,8.65,8.65,0,0,0,3.68.64,10.44,10.44,0,0,0,2.95-.38,5.24,5.24,0,0,0,1.81-.78v.92h9.31V170a1.88,1.88,0,0,1-.62-.54,2,2,0,0,1-.37-.79,5.19,5.19,0,0,1-.09-1V155.34Zm-6.22-5a2,2,0,0,0-.64,1.52,2.05,2.05,0,0,0,.67,1.51,2.39,2.39,0,0,0,1.73.64,2.51,2.51,0,0,0,1.28-.32,2.14,2.14,0,0,0,1.1-1.83,2.09,2.09,0,0,0-.63-1.49,2.78,2.78,0,0,0-3.51,0m7.33,0a2.06,2.06,0,0,0-.62,1.52,2,2,0,0,0,.66,1.52,2.4,2.4,0,0,0,1.72.63,2.48,2.48,0,0,0,1.28-.32,2.13,2.13,0,0,0,.82-.81,2,2,0,0,0,.28-1,2.09,2.09,0,0,0-.63-1.49,2.38,2.38,0,0,0-1.75-.64,2.42,2.42,0,0,0-1.76.61"/><g class="cls-2"><rect class="cls-1" x="260.15" y="149.71" width="21.22" height="24.84"/></g><path class="cls-1" d="M294.63,155.05a6.65,6.65,0,0,0-2.45,1v-.73h-9.27v4.51c.7.22,1,.86,1,1.9v5.7a5.45,5.45,0,0,1-.16,1.49,1.44,1.44,0,0,1-.89.85v4.52h10.35v-4.52a2.22,2.22,0,0,1-1.08-2.11v-7.13a2.44,2.44,0,0,1,1.11-.3,1.58,1.58,0,0,1,1,.31,2,2,0,0,1,.63.81,2.61,2.61,0,0,1,.22,1.08v5.94c0,2.05.08,4,.26,5.92h9V170a2.12,2.12,0,0,1-.8-.94,4.47,4.47,0,0,1-.25-1.65v-7.6a6.8,6.8,0,0,0-.36-2.09,4,4,0,0,0-1.64-2,6.66,6.66,0,0,0-3.81-.9,18.19,18.19,0,0,0-2.87.19"/><g class="cls-3"><rect class="cls-1" x="282.91" y="154.86" width="21.45" height="19.45"/></g><path class="cls-1" d="M305.71,148.48V153a1.09,1.09,0,0,1,.88.7,5.83,5.83,0,0,1,.18,1.68v12.34a4.65,4.65,0,0,1-.2,1.43,1.46,1.46,0,0,1-.86.93v4.27h10.05V170a1.72,1.72,0,0,1-.61-.44,1.58,1.58,0,0,1-.31-.59,3.37,3.37,0,0,1-.13-.73c0-.26,0-.62,0-1.07V148.48Z"/><g class="cls-4"><rect class="cls-1" x="305.71" y="148.48" width="10.05" height="25.83"/></g><path class="cls-1" d="M253.43,160.27c2-2.77,3.47-4.83,4.05-5.67a3.4,3.4,0,0,1,.81-.81,3.61,3.61,0,0,1,.81-.41v-4.86h-9.72v4a3.59,3.59,0,0,1,0,.81c-.14,1.29-.88,2.05-2.43,4.06-.29.37-.71.92-1.22,1.62V155a2.18,2.18,0,0,1,.41-1.21,2.24,2.24,0,0,1,.4-.41v-4.86H235.6v4.86a1.22,1.22,0,0,1,.36.21c1.17.94.84,4.36.83,7.9s.3,7-.83,7.9a1.12,1.12,0,0,1-.36.2v4.86h9.73c-1-.79-4.32-3.79-4.46-7.7a5.56,5.56,0,0,1,.41-2.43,6.36,6.36,0,0,1,4.05-3.24,10.75,10.75,0,0,0-.81,2.43c-1,4.81,1.83,8.94,2,8.87a16.59,16.59,0,0,1-1.19-7.25,14.13,14.13,0,0,1,.81-3.64,4.22,4.22,0,0,1,2.43.4c1.94,1,2.84,3.87,2.43,6.08-.34,1.81-1.46,2.64-1.62,5.27a9.54,9.54,0,0,0,0,1.21h10.53v-4.86a5.54,5.54,0,0,1-1.21-.81,12,12,0,0,1-2.43-3.24c-1.22-2-1.62-3.24-2.84-5.27"/><path class="cls-1" d="M328.39,168l1.47,0c2.2,0,4.4,0,6.59,0,.11,1.27,0,2.55.06,3.81a1.33,1.33,0,0,1-.95,1.5,40.59,40.59,0,0,1-3.84,1.34,18.4,18.4,0,0,1-8.94.1,8.39,8.39,0,0,1-1.75-.59,4.85,4.85,0,0,1-3.1-4.63c0-2.76-.05-5.51,0-8.27a4.86,4.86,0,0,1,4-5.06,15.35,15.35,0,0,1,3.15-.52,23.45,23.45,0,0,1,6.48.33,15.12,15.12,0,0,1,1.5.42,4.73,4.73,0,0,1,3.45,4.94c0,1.43,0,2.85,0,4.28,0,1.09,0,1.1-1.07,1.1h-9.76a24.54,24.54,0,0,0,0,2.74,1.42,1.42,0,0,0,1.45,1.31,1.47,1.47,0,0,0,.84-.4,1.94,1.94,0,0,0,.41-1.21A5.43,5.43,0,0,0,328.39,168Zm.36-8.24c-1-.41-1.46-.62-1.52-.63a3,3,0,0,0-3.16,1.35.9.9,0,0,0-.14.63c.08.43.52.66.81.81s.46.36,2,.41c.52,0,2.16-.4,2.43-.41a10.35,10.35,0,0,1-3.65.81,3.17,3.17,0,0,1-1.89-.81,3.54,3.54,0,0,0,.06.66,3.22,3.22,0,0,0,4.65,1.88,11.06,11.06,0,0,0,4.05-3.39,8.64,8.64,0,0,0,.53-.9,4.35,4.35,0,0,1-2.94.13C329.91,160.24,329.89,160.22,328.75,159.73Z"/></g></g></svg>