<svg xmlns="http://www.w3.org/2000/svg" xmlns:xlink="http://www.w3.org/1999/xlink" viewBox="0 0 63.46 73.99" style="stroke: none !important;"><defs><style>.cls-1{fill:url(#linear-gradient);}.cls-2{fill:url(#linear-gradient-2);}.cls-3{fill:url(#linear-gradient-3);}</style><linearGradient id="linear-gradient" y1="45.85" x2="63.46" y2="45.85" gradientUnits="userSpaceOnUse"><stop offset="0" stop-color="#5caadf"/><stop offset="1" stop-color="#4262aa"/></linearGradient><linearGradient id="linear-gradient-2" x1="27.54" y1="9.9" x2="54.15" y2="9.9" xlink:href="#linear-gradient"/><linearGradient id="linear-gradient-3" x1="28.03" y1="12.56" x2="43.85" y2="12.56" xlink:href="#linear-gradient"/></defs><title>manzana-color</title><g id="Layer_2" data-name="Layer 2"><g id="Layer_1-2" data-name="Layer 1"><path class="cls-1" d="M30.27,74a73.74,73.74,0,0,1-11.88-1.38L18,72.54l-.35-.19c-.55-.3-13.41-7.66-17.23-32.53-1.24-8.1.2-14.14,4.29-17.94,6.56-6.1,17.27-3.73,17.73-3.63l.29.09,10,3.67c10.3-4.43,23.26-7.25,28.59,3,6.9,13.33-5.15,44.3-9.54,46.9-3.29,2-8.33,1.77-12.78,1.61a26.28,26.28,0,0,0-5.47.1A13.68,13.68,0,0,1,30.27,74Zm-10.48-6.2c4.16.77,10.52,1.57,12.53,1a26.89,26.89,0,0,1,6.92-.26c3.5.13,7.84.29,9.92-.84,2.51-2.65,14.11-31,7.25-41.26-3.26-4.87-10.84-4.7-22.52.52L33,27.4,21.2,23.1c-1.11-.22-8.8-1.55-13.09,2.45C5.32,28.16,4.4,32.7,5.37,39.06,7.17,50.71,11.08,58,14.06,62A24.57,24.57,0,0,0,19.79,67.79Z"/><path class="cls-2" d="M28.13,16.43a7.37,7.37,0,0,1-.47-4.28,13.81,13.81,0,0,1,1.45-4.22,19.57,19.57,0,0,1,6.63-5.74A18.72,18.72,0,0,1,44.25,0a19.34,19.34,0,0,1,8.58,1.85l1.32.63L52.29,4.7l-.07,0a1,1,0,0,0-.23.33,2.65,2.65,0,0,0-.23,1.3,14.84,14.84,0,0,1-.07,2.23,6,6,0,0,1-1,2.48,17.21,17.21,0,0,1-1.42,1.74,20.32,20.32,0,0,1-1.56,1.52,23.09,23.09,0,0,1-3.5,2.56,23,23,0,0,1-8.12,2.9,20.21,20.21,0,0,1-4.32-.48,7.79,7.79,0,0,1-2.07-.8,3.63,3.63,0,0,1-1.46-1.58,3.27,3.27,0,0,0,1.76.79,7,7,0,0,0,1.89,0,20.47,20.47,0,0,0,3.75-.88,20.29,20.29,0,0,0,7-2.53,19.91,19.91,0,0,0,3-2.21c.47-.41.91-.86,1.34-1.31A13.44,13.44,0,0,0,48.2,9.4a2.9,2.9,0,0,0,.52-1.24,14.06,14.06,0,0,0,0-1.81,5.64,5.64,0,0,1,.55-2.63,3.89,3.89,0,0,1,1-1.28,3.14,3.14,0,0,1,1.77-.73l-.54,2.85A16.24,16.24,0,0,0,44.3,3,16,16,0,0,0,31.57,9.71a13.5,13.5,0,0,0-2.35,3A7.9,7.9,0,0,0,28.13,16.43Z"/><path class="cls-3" d="M28,18.56a9.87,9.87,0,0,1,2.34-5.21A16.27,16.27,0,0,1,34.46,10c1.48-.9,2.94-1.67,4.46-2.43a8.49,8.49,0,0,1,4.93-1.06A8.11,8.11,0,0,0,39.3,8.19c-1.35.94-2.72,2-4,3a14.4,14.4,0,0,0-3.15,3.5,7.16,7.16,0,0,0-1.17,4Z"/></g></g></svg>