<svg xmlns="http://www.w3.org/2000/svg" viewBox="0 0 77.81 91.61" style="stroke: none !important;"><defs><style>.cls-1{fill:#999;}</style></defs><title>manzana-gris</title><g id="Layer_2" data-name="Layer 2"><g id="Layer_1-2" data-name="Layer 1"><path class="cls-1" d="M37,91.61a94.55,94.55,0,0,1-14.83-1.73l-.28,0-.25-.14C21,89.32,5.28,80.31.53,49.44c-1.5-9.79.19-17,5-21.54,7.8-7.24,20.7-4.39,21.24-4.26l.22.06,13.22,4.84c18.08-7.92,29.85-6.9,35,3,5,9.68,1.64,25.55-.82,34.15-2.85,10-7.85,21.77-10.76,23.5-3.82,2.27-10,2-15.45,1.85-3-.11-5.84-.22-7.32.17A16,16,0,0,1,37,91.61ZM23.22,86.37c3.83.72,13.44,2.21,16.73,1.35,2-.52,4.95-.41,8.37-.29,4.71.18,10.56.39,13.47-1.34,3.08-2.34,18.51-38.87,9.83-53.52C67.25,25.19,57,25.05,41,32.15l-.67.3L25.88,27.16C24.73,26.92,14.07,24.93,8,30.57c-3.9,3.63-5.21,9.79-3.9,18.32C8.3,76.05,21.36,85.2,23.22,86.37Z"/><path class="cls-1" d="M34.3,20a9.55,9.55,0,0,1-.18-5.28,17.2,17.2,0,0,1,2.08-5,23.91,23.91,0,0,1,8.12-7A22.94,22.94,0,0,1,54.73,0,23.56,23.56,0,0,1,65.24,2.27l3.38,1.6-3.77.47a.9.9,0,0,0-.54.24,1.94,1.94,0,0,0-.5.66,4.29,4.29,0,0,0-.38,2A19.75,19.75,0,0,1,63.35,10a6.77,6.77,0,0,1-1.14,2.8,18.51,18.51,0,0,1-1.73,2.12,26,26,0,0,1-1.91,1.87,28.27,28.27,0,0,1-4.31,3.14,28.24,28.24,0,0,1-10,3.58,25.65,25.65,0,0,1-5.33-.24,9,9,0,0,1-2.57-.8,4.58,4.58,0,0,1-1.94-1.78,4.33,4.33,0,0,0,2.16,1.21,8.67,8.67,0,0,0,2.44.21,25.33,25.33,0,0,0,4.91-.75A26.61,26.61,0,0,0,53.16,18a25.64,25.64,0,0,0,4-2.9,22,22,0,0,0,1.76-1.72,17,17,0,0,0,1.52-1.86,4.34,4.34,0,0,0,.79-1.9,16.73,16.73,0,0,0,.06-2.41,9.68,9.68,0,0,1,.11-1.46,6,6,0,0,1,.5-1.52,4.27,4.27,0,0,1,1-1.35,3.15,3.15,0,0,1,1.78-.75L64.3,4.23a21.61,21.61,0,0,0-9.53-2.05A20.93,20.93,0,0,0,45.34,4.6a21.55,21.55,0,0,0-4.05,2.78A20.67,20.67,0,0,0,38,11a16.66,16.66,0,0,0-2.73,4.1,10.24,10.24,0,0,0-.79,2.36A8.27,8.27,0,0,0,34.3,20Z"/><path class="cls-1" d="M35,22.75a11.9,11.9,0,0,1,2.66-6.28,20.33,20.33,0,0,1,4.92-4.32c1.81-1.17,3.64-2.22,5.53-3.24A10.74,10.74,0,0,1,54.22,7.4a10.44,10.44,0,0,0-5.87,2c-1.76,1.14-3.52,2.36-5.16,3.64A19,19,0,0,0,39,17.43a10,10,0,0,0-1.8,5.43Z"/></g></g></svg>