<svg xmlns="http://www.w3.org/2000/svg" viewBox="0 0 59.97 64"><defs><style>.cls-1{fill:#fff;}</style></defs><title>meta-ico-page</title><g id="Capa_2" data-name="Capa 2"><g id="Capa_1-2" data-name="Capa 1"><path class="cls-1" d="M33.49,11A26.37,26.37,0,0,0,16.79,17l-3.4-4.08,1.78-8.62-1.64-.34L12,11.24,10.12,9,11.9.34,10.26,0,8.76,7.32,6.19,4.24,4.91,5.31,7.47,8.39,0,8.55l0,1.67L8.84,10l1.9,2.28-7.47.16,0,1.67L12.11,14l3.42,4.11a26.47,26.47,0,1,0,18-7Zm0,51.31a24.81,24.81,0,0,1-16.89-43l5.46,6.56a16.33,16.33,0,1,0,1.25-1.11l-5.45-6.54A24.81,24.81,0,1,1,33.49,62.33Zm-.41-23.21,1.28-1.07-4.66-5.6a6.33,6.33,0,1,1-1.2,1.17Zm-7.6-1.61a8,8,0,1,0,8-8,7.93,7.93,0,0,0-4.86,1.66l-4.25-5.1a14.55,14.55,0,1,1-1.25,1.11l4.28,5.14A8,8,0,0,0,25.48,37.51Z"/></g></g></svg>