<svg xmlns="http://www.w3.org/2000/svg" xmlns:xlink="http://www.w3.org/1999/xlink" viewBox="0 0 164.07 175.09"><defs><style>.cls-1{fill:url(#linear-gradient);}</style><linearGradient id="linear-gradient" x1="16.35" y1="37.4" x2="176.25" y2="175.98" gradientUnits="userSpaceOnUse"><stop offset="0" stop-color="#5caadf"/><stop offset="1" stop-color="#4262aa"/></linearGradient></defs><title>meta-down</title><g id="Capa_2" data-name="Capa 2"><g id="Capa_1-2" data-name="Capa 1"><path class="cls-1" d="M91.61,30.16A72.12,72.12,0,0,0,45.94,46.41L36.63,35.24l4.86-23.6L37,10.72l-4.12,20-5.2-6.23L32.55.92,28.08,0,24,20l-7-8.42-3.51,2.93,7,8.41L0,23.4.1,28l24.08-.53,5.2,6.24-20.44.44L9,38.69l24.09-.53,9.37,11.25A72.41,72.41,0,1,0,91.61,30.16Zm0,140.36A67.85,67.85,0,0,1,45.42,52.92L60.35,70.84a44.78,44.78,0,1,0,3.42-3L48.86,49.92a67.88,67.88,0,1,1,42.75,120.6ZM90.49,107,94,104.08,81.24,88.77A17.35,17.35,0,1,1,78,92Zm-20.78-4.39a22,22,0,1,0,8.61-17.36L66.7,71.32a39.82,39.82,0,1,1-3.42,3L75,88.41A21.79,21.79,0,0,0,69.71,102.62Z"/></g></g></svg>