<svg xmlns="http://www.w3.org/2000/svg" viewBox="0 0 129.92 53.04"  style="stroke: none !important;"><defs><style>.cls-1{fill:#999;}</style></defs><title>pesas-gris</title><g id="Layer_2" data-name="Layer 2"><g id="Layer_1-2" data-name="Layer 1"><path class="cls-1" d="M26.52,53A26.52,26.52,0,1,1,53,26.52,26.55,26.55,0,0,1,26.52,53Zm0-49.2A22.68,22.68,0,1,0,49.2,26.52,22.71,22.71,0,0,0,26.52,3.84Z"/><path class="cls-1" d="M104.75,53C93.43,53,82.22,44.3,79.24,33.17l3.72-1c2.5,9.37,12.28,17,21.79,17A21.32,21.32,0,1,0,83.84,23.7L80.07,23A25.17,25.17,0,1,1,104.75,53Z"/><polygon class="cls-1" points="51.47 21.91 107.63 23.83 51.47 25.75 51.47 21.91"/><polygon class="cls-1" points="48.82 30.37 108.01 32.29 48.82 34.21 48.82 30.37"/></g></g></svg>