<svg xmlns="http://www.w3.org/2000/svg" xmlns:xlink="http://www.w3.org/1999/xlink" viewBox="0 0 99.16 41.75"  style="stroke: none !important;"><defs><style>.cls-1{fill:url(#linear-gradient);}</style><linearGradient id="linear-gradient" y1="20.87" x2="99.16" y2="20.87" gradientUnits="userSpaceOnUse"><stop offset="0" stop-color="#5caadf"/><stop offset="1" stop-color="#4262aa"/></linearGradient></defs><title>pesas-color</title><g id="Layer_2" data-name="Layer 2"><g id="Layer_1-2" data-name="Layer 1"><path class="cls-1" d="M79.3,2A19.88,19.88,0,0,0,59.93,17.58L41.27,16.47a20.9,20.9,0,1,0-.62,11l18.68-1.05C61.8,35,70.5,41.73,79.3,41.73A19.86,19.86,0,0,0,79.3,2ZM20.87,36.75A15.88,15.88,0,1,1,36.75,20.87,15.89,15.89,0,0,1,20.87,36.75Zm58.43,0c-6.19,0-12.55-4.64-14.81-10.57l17.25-1-40.1-2.27c.06-.55.08-1.11.09-1.68l39.72-2.37L65,17.88A14.86,14.86,0,1,1,79.3,36.73Z"/></g></g></svg>