<svg xmlns="http://www.w3.org/2000/svg" viewBox="0 0 42.5 42.5"><defs><style>.cls-1{fill:#5dabe0;}</style></defs><title>sad-blue</title><g id="Layer_2" data-name="Layer 2"><g id="Layer_1-2" data-name="Layer 1"><circle class="cls-1" cx="28.69" cy="15.94" r="3.19"/><circle class="cls-1" cx="13.81" cy="15.94" r="3.19"/><path class="cls-1" d="M21.7,0A21.25,21.25,0,1,0,42.49,21.73,21.23,21.23,0,0,0,21.7,0Zm-.83,38.24A17,17,0,1,1,38.25,21.63,17,17,0,0,1,20.87,38.25Zm.29-12.75a11.68,11.68,0,0,0-11,7.19l3.55.08a8.45,8.45,0,0,1,14.66.33l3.55.08A11.69,11.69,0,0,0,21.16,25.5Z"/></g></g></svg>