<svg xmlns="http://www.w3.org/2000/svg" viewBox="0 0 51 51"><defs><style>.cls-1{fill:none;}.cls-2{fill:#fff;}</style></defs><title>sad</title><g id="Layer_2" data-name="Layer 2"><g id="Layer_1-2" data-name="Layer 1"><path class="cls-1" d="M0,0H51V51H0Z"/><circle class="cls-2" cx="32.94" cy="20.19" r="3.19"/><circle class="cls-2" cx="18.06" cy="20.19" r="3.19"/><path class="cls-2" d="M25.48,4.25A21.25,21.25,0,1,0,46.75,25.5,21.24,21.24,0,0,0,25.48,4.25Zm0,38.25a17,17,0,1,1,17-17A17,17,0,0,1,25.5,42.5Zm0-12.75a11.68,11.68,0,0,0-10.88,7.44h3.55a8.45,8.45,0,0,1,14.66,0h3.55A11.68,11.68,0,0,0,25.5,29.75Z"/></g></g></svg>