<svg xmlns="http://www.w3.org/2000/svg" viewBox="0 0 130.94 56.21" style="stroke: none !important;"><defs><style>.cls-1{fill:#999;}</style></defs><title>tratamiento-gris</title><g id="Layer_2" data-name="Layer 2"><g id="Layer_1-2" data-name="Layer 1"><path class="cls-1" d="M5.82,56.21A5.67,5.67,0,0,1,.18,50.59L0,6.16A5.65,5.65,0,0,1,5.62.49L125.09,0a5.73,5.73,0,0,1,4,1.64,5.59,5.59,0,0,1,1.68,4l.18,44.44a5.65,5.65,0,0,1-5.62,5.66L5.85,56.21ZM125.11,4h0L5.64,4.49A1.66,1.66,0,0,0,4,6.14l.18,44.44a1.67,1.67,0,0,0,1.65,1.63l119.47-.49a1.64,1.64,0,0,0,1.64-1.65l-.18-44.43A1.65,1.65,0,0,0,125.11,4Z"/><path class="cls-1" d="M30.66,44.55a6.41,6.41,0,0,1,0-12.81h0a6.41,6.41,0,0,1,0,12.81Zm0-9.81h0a3.41,3.41,0,0,0-3.39,3.42,3.41,3.41,0,0,0,3.42,3.39,3.43,3.43,0,0,0,2.4-1,3.41,3.41,0,0,0-2.42-5.8Z"/><path class="cls-1" d="M53.91,44.45a6.4,6.4,0,0,1,0-12.8h0a6.4,6.4,0,0,1,0,12.8Zm0-9.8h0a3.4,3.4,0,0,0-3.39,3.41,3.43,3.43,0,0,0,1,2.4,3.39,3.39,0,0,0,4.81,0,3.39,3.39,0,0,0-2.41-5.79Z"/><path class="cls-1" d="M30.75,24.76a6.41,6.41,0,0,1,0-12.81h0a6.42,6.42,0,0,1,6.4,6.38h0a6.42,6.42,0,0,1-6.38,6.43Zm0-9.81h0a3.4,3.4,0,0,0-2.38,5.82,3.47,3.47,0,0,0,2.41,1,3.42,3.42,0,0,0,3.39-3.42h0A3.41,3.41,0,0,0,30.75,15Z"/><path class="cls-1" d="M54,24.66a6.4,6.4,0,0,1,0-12.8h0a6.4,6.4,0,0,1,0,12.8Zm0-9.8h0a3.41,3.41,0,0,0-2.39,5.82,3.34,3.34,0,0,0,2.41,1,3.4,3.4,0,1,0,0-6.8Z"/><path class="cls-1" d="M76.94,44.36A6.41,6.41,0,0,1,70.54,38a6.4,6.4,0,0,1,6.37-6.43h0a6.41,6.41,0,0,1,0,12.81Zm0-9.81h0a3.41,3.41,0,0,0-2.41,1,3.34,3.34,0,0,0-1,2.41,3.4,3.4,0,0,0,3.4,3.39h0a3.45,3.45,0,0,0,2.41-1,3.42,3.42,0,0,0,0-4.81A3.4,3.4,0,0,0,76.94,34.55Z"/><path class="cls-1" d="M100.18,44.26a6.42,6.42,0,0,1-6.4-6.38,6.41,6.41,0,0,1,6.38-6.42h0a6.4,6.4,0,0,1,6.4,6.37,6.4,6.4,0,0,1-6.38,6.43Zm0-9.8h0a3.39,3.39,0,0,0-2.38,5.81,3.29,3.29,0,0,0,2.41,1,3.34,3.34,0,0,0,2.4-1,3.39,3.39,0,0,0,1-2.41h0a3.4,3.4,0,0,0-3.4-3.38Z"/><path class="cls-1" d="M77,24.57a6.41,6.41,0,0,1,0-12.81h0a6.41,6.41,0,0,1,6.4,6.38,6.4,6.4,0,0,1-6.37,6.43Zm0-9.81h0a3.41,3.41,0,0,0-3.39,3.42,3.34,3.34,0,0,0,1,2.4,3.39,3.39,0,0,0,4.81,0,3.34,3.34,0,0,0,1-2.41A3.4,3.4,0,0,0,77,14.76Z"/><path class="cls-1" d="M100.28,24.47a6.4,6.4,0,0,1,0-12.8,6.33,6.33,0,0,1,4.54,1.85,6.41,6.41,0,0,1-4.49,11Zm0-9.8h0a3.41,3.41,0,0,0-2.38,5.82,3.41,3.41,0,0,0,2.41,1,3.37,3.37,0,0,0,2.4-1,3.42,3.42,0,0,0,1-2.41,3.4,3.4,0,0,0-3.4-3.39Z"/></g></g></svg>