<svg xmlns="http://www.w3.org/2000/svg" xmlns:xlink="http://www.w3.org/1999/xlink" viewBox="0 0 95.12 41.25"  style="stroke: none !important;"><defs><style>.cls-1{fill:url(#linear-gradient);}.cls-2{fill:url(#linear-gradient-2);}.cls-3{fill:url(#linear-gradient-3);}.cls-4{fill:url(#linear-gradient-4);}.cls-5{fill:url(#linear-gradient-5);}.cls-6{fill:url(#linear-gradient-6);}.cls-7{fill:url(#linear-gradient-7);}.cls-8{fill:url(#linear-gradient-8);}.cls-9{fill:url(#linear-gradient-9);}</style><linearGradient id="linear-gradient" x1="9.88" y1="32.4" x2="81.88" y2="9.9" gradientUnits="userSpaceOnUse"><stop offset="0" stop-color="#5caadf"/><stop offset="1" stop-color="#4262aa"/></linearGradient><linearGradient id="linear-gradient-2" x1="9.71" y1="31.85" x2="81.7" y2="9.35" xlink:href="#linear-gradient"/><linearGradient id="linear-gradient-3" x1="11.18" y1="36.56" x2="83.17" y2="14.06" xlink:href="#linear-gradient"/><linearGradient id="linear-gradient-4" x1="5.65" y1="18.87" x2="77.65" y2="-3.63" xlink:href="#linear-gradient"/><linearGradient id="linear-gradient-5" x1="7.12" y1="23.58" x2="79.12" y2="1.08" xlink:href="#linear-gradient"/><linearGradient id="linear-gradient-6" x1="12.64" y1="41.22" x2="84.63" y2="18.72" xlink:href="#linear-gradient"/><linearGradient id="linear-gradient-7" x1="14.11" y1="45.93" x2="86.1" y2="23.43" xlink:href="#linear-gradient"/><linearGradient id="linear-gradient-8" x1="8.58" y1="28.24" x2="80.58" y2="5.75" xlink:href="#linear-gradient"/><linearGradient id="linear-gradient-9" x1="10.05" y1="32.95" x2="82.05" y2="10.45" xlink:href="#linear-gradient"/></defs><title>tratamiento-color</title><g id="Layer_2" data-name="Layer 2"><g id="Layer_1-2" data-name="Layer 1"><path class="cls-1" d="M4.56,41.25A4.44,4.44,0,0,1,.13,36.84L0,4.8A4.44,4.44,0,0,1,4.41.35L90.54,0A4.44,4.44,0,0,1,95,4.41l.13,32a4.43,4.43,0,0,1-4.41,4.44l-86.13.36Zm86-37.65h0L4.43,4a.77.77,0,0,0-.58.25.81.81,0,0,0-.25.58l.14,32a.83.83,0,0,0,.82.82h0l86.14-.35a.84.84,0,0,0,.82-.83l-.13-32a.81.81,0,0,0-.25-.58A.83.83,0,0,0,90.56,3.6Z"/><path class="cls-2" d="M22.47,32.48a4.62,4.62,0,0,1,0-9.23h0a4.62,4.62,0,0,1,0,9.23Zm0-7.07h0a2.45,2.45,0,0,0-1.72,4.19,2.32,2.32,0,0,0,1.74.71,2.44,2.44,0,0,0,2.44-2.46,2.46,2.46,0,0,0-2.45-2.44Z"/><path class="cls-3" d="M39.22,32.41a4.62,4.62,0,0,1,0-9.23,4.65,4.65,0,0,1,3.27,1.33,4.59,4.59,0,0,1,1.36,3.26h0A4.54,4.54,0,0,1,42.5,31a4.59,4.59,0,0,1-3.26,1.37Zm0-7.07h0a2.45,2.45,0,0,0-1.72,4.19,2.32,2.32,0,0,0,1.74.71,2.44,2.44,0,0,0,2.44-2.46h0a2.46,2.46,0,0,0-2.45-2.44Z"/><path class="cls-4" d="M22.53,18.21a4.62,4.62,0,0,1,0-9.23h0a4.62,4.62,0,0,1,0,9.23Zm0-7.07h0A2.45,2.45,0,1,0,25,13.58a2.45,2.45,0,0,0-.73-1.73A2.42,2.42,0,0,0,22.53,11.14Z"/><path class="cls-5" d="M39.29,18.14a4.62,4.62,0,0,1,0-9.23h0a4.63,4.63,0,0,1,4.62,4.6h0a4.61,4.61,0,0,1-4.6,4.63Zm0-7.07h0a2.46,2.46,0,0,0,0,4.91h0a2.46,2.46,0,0,0,2.44-2.46h0a2.44,2.44,0,0,0-2.45-2.45Z"/><path class="cls-6" d="M55.83,32.34a4.62,4.62,0,1,1,3.25-7.89,4.56,4.56,0,0,1,1.37,3.25h0a4.62,4.62,0,0,1-4.6,4.64Zm0-7.07h0a2.46,2.46,0,0,0-1.72,4.2,2.38,2.38,0,0,0,1.74.71,2.46,2.46,0,0,0,2.44-2.47h0a2.44,2.44,0,0,0-2.45-2.44Z"/><path class="cls-7" d="M72.59,32.27A4.63,4.63,0,0,1,68,27.67a4.62,4.62,0,1,1,4.64,4.6Zm0-7.07h0a2.46,2.46,0,0,0-2.44,2.46,2.47,2.47,0,0,0,.72,1.74,2.5,2.5,0,0,0,1.74.71,2.44,2.44,0,0,0,1.73-.73A2.4,2.4,0,0,0,75,27.64a2.44,2.44,0,0,0-2.45-2.44Z"/><path class="cls-8" d="M55.9,18.07a4.63,4.63,0,0,1-4.62-4.59,4.62,4.62,0,0,1,4.6-4.64h0a4.61,4.61,0,0,1,4.61,4.6h0a4.62,4.62,0,0,1-4.59,4.63Zm0-7.07h0a2.46,2.46,0,0,0-1.72,4.2,2.38,2.38,0,0,0,1.74.71,2.45,2.45,0,0,0,2.44-2.46h0a2.43,2.43,0,0,0-.72-1.73A2.46,2.46,0,0,0,55.9,11Z"/><path class="cls-9" d="M72.66,18a4.62,4.62,0,0,1,0-9.23h0a4.62,4.62,0,0,1,3.27,7.87A4.55,4.55,0,0,1,72.68,18Zm0-7.06h0A2.46,2.46,0,0,0,70.2,13.4a2.45,2.45,0,0,0,.73,1.73,2.36,2.36,0,0,0,1.74.71,2.45,2.45,0,0,0,1.73-.72,2.48,2.48,0,0,0,.71-1.74,2.46,2.46,0,0,0-2.45-2.44Z"/></g></g></svg>