<svg xmlns="http://www.w3.org/2000/svg" xmlns:xlink="http://www.w3.org/1999/xlink" viewBox="0 0 29.19 32.25"><defs><style>.cls-1{fill:url(#linear-gradient);}.cls-2{fill:url(#linear-gradient-2);}.cls-3{fill:url(#linear-gradient-3);}.cls-4{fill:url(#linear-gradient-4);}.cls-5{fill:url(#linear-gradient-5);}.cls-6{fill:url(#linear-gradient-6);}</style><linearGradient id="linear-gradient" x1="13.84" y1="14.41" x2="15.5" y2="14.41" gradientTransform="matrix(0.01, 1, -1, 0.01, 28.91, -0.42)" gradientUnits="userSpaceOnUse"><stop offset="0" stop-color="#5caadf"/><stop offset="1" stop-color="#4262aa"/></linearGradient><linearGradient id="linear-gradient-2" x1="13.33" y1="14.41" x2="16" y2="14.41" gradientTransform="matrix(1, 0, 0, 1, 0, 0)" xlink:href="#linear-gradient"/><linearGradient id="linear-gradient-3" x1="0.71" y1="9.05" x2="27.97" y2="9.05" gradientTransform="matrix(1, 0, 0, 1, 0, 0)" xlink:href="#linear-gradient"/><linearGradient id="linear-gradient-4" x1="0" y1="9.03" x2="28.68" y2="9.03" gradientTransform="matrix(1, 0, 0, 1, 0, 0)" xlink:href="#linear-gradient"/><linearGradient id="linear-gradient-5" x1="0.8" y1="31.05" x2="28.69" y2="31.05" gradientTransform="matrix(1, 0, 0, 1, 0, 0)" xlink:href="#linear-gradient"/><linearGradient id="linear-gradient-6" x1="0.3" y1="31.05" x2="29.19" y2="31.05" gradientTransform="matrix(1, 0, 0, 1, 0, 0)" xlink:href="#linear-gradient"/></defs><title>upload-color</title><g id="Layer_2" data-name="Layer 2"><g id="Layer_1-2" data-name="Layer 1"><rect class="cls-1" x="2.03" y="13.71" width="25.28" height="1.39" transform="translate(0.1 28.92) rotate(-89.38)"/><path class="cls-2" d="M15.73,27.56l-2.4,0,.28-26.28,2.39,0Zm-1.39-1h.4L15,2.27H14.6Z"/><polygon class="cls-3" points="26.9 17.36 14.76 2.84 1.72 16.56 0.71 15.6 14.83 0.75 27.97 16.46 26.9 17.36"/><path class="cls-4" d="M26.84,18.06,14.74,3.59l-13,13.67L0,15.61,14.85,0,28.68,16.52Zm-12.06-16L27,16.65l.3-.25L14.8,1.5,1.41,15.58l.29.27Z"/><rect class="cls-5" x="0.8" y="30.36" width="27.89" height="1.39"/><path class="cls-6" d="M29.19,32.25H.3V29.86H29.19Zm-27.89-1H28.19v-.39H1.3Z"/></g></g></svg>